<svg xmlns="http://www.w3.org/2000/svg" viewBox="0 0 100 100">
  <!-- 背景圆形 -->
  <circle cx="50" cy="50" r="48" fill="#10b981"/>
  
  <!-- 山峰 -->
  <path d="M20 70 L35 40 L50 65 L65 35 L80 70 Z" fill="#065f46"/>
  <path d="M35 40 L50 25 L65 35 L50 65 Z" fill="#047857"/>
  
  <!-- 山顶积雪 -->
  <path d="M42 32 L50 25 L58 32 L50 40 Z" fill="white"/>
  
  <!-- 徒步人剪影 -->
  <circle cx="50" cy="55" r="4" fill="#1f2937"/>
  <path d="M46 60 L44 72 M50 59 L50 72 M54 60 L56 72" stroke="#1f2937" stroke-width="2" stroke-linecap="round"/>
  <path d="M44 65 L56 65" stroke="#1f2937" stroke-width="2" stroke-linecap="round"/>
  
  <!-- 登山杖 -->
  <line x1="42" y1="62" x2="38" y2="75" stroke="#1f2937" stroke-width="1.5" stroke-linecap="round"/>
  <line x1="58" y1="62" x2="62" y2="75" stroke="#1f2937" stroke-width="1.5" stroke-linecap="round"/>
  
  <!-- 背包 -->
  <rect x="46" y="58" width="8" height="6" rx="1" fill="#374151"/>
</svg>